<mxfile host="app.diagrams.net" modified="2023-07-14T03:23:31.469Z" agent="Mozilla/5.0 (Windows NT 10.0; Win64; x64) AppleWebKit/537.36 (KHTML, like Gecko) Chrome/114.0.0.0 Safari/537.36 Edg/114.0.1823.79" version="21.6.2" etag="v_Z8l2VKjDJPD5Io6dXz" type="github">
  <diagram name="Page-1" id="ESHx_Bn29NUQe2zcMQwe">
    <mxGraphModel>
      <root>
        <mxCell id="0" />
        <mxCell id="1" parent="0" />
      </root>
    </mxGraphModel>
  </diagram>
</mxfile>
